<svg width="82" height="72" viewBox="0 0 82 72" fill="none" xmlns="http://www.w3.org/2000/svg">
<path d="M29.9378 22.5867C33.0423 16.4408 40.8422 14.426 46.5344 18.2995L28.9118 51.1986C28.6761 51.6386 28.1317 51.8092 27.6872 51.5824L18.6445 46.9683C18.1948 46.7388 18.0153 46.1889 18.2429 45.7383L29.9378 22.5867Z" fill="#0A9661"/>
<path d="M54.899 22.7114L65.6125 28.3266L47.9093 62.1324L37.1958 56.5172L54.899 22.7114Z" fill="#0A9661"/>
<path d="M74.149 32.8532C80.2928 34.546 83.3046 41.4796 80.3487 47.126L67.5847 71.5083C67.3498 71.957 66.7956 72.1302 66.3471 71.8951L57.257 67.1308C56.8089 66.8959 56.6358 66.3423 56.8702 65.8939L74.149 32.8532Z" fill="#0A9661"/>
<path d="M46.5685 18.2696L42.0972 26.691L30.0119 22.451C33.1583 16.402 40.9103 14.4656 46.5685 18.2696Z" fill="url(#paint0_linear_923_22)"/>
<path d="M65.7113 28.2793L60.85 37.4267L49.573 32.5775L54.8262 22.6802L65.7113 28.2793Z" fill="url(#paint1_linear_923_22)"/>
<path d="M76.1229 33.6784C81.1441 36.2352 82.9995 42.4771 80.1904 47.3621L69.0204 42.6386L74.1782 32.6882L76.1229 33.6784Z" fill="url(#paint2_linear_923_22)"/>
<path d="M0.394965 24.5078L38.6555 24.0938C39.1618 24.0883 39.5766 24.4943 39.5821 25.0006L39.7209 37.8346C39.7264 38.3409 39.3205 38.7557 38.8142 38.7612L0.55367 39.1753L0.394965 24.5078Z" fill="#0A9661"/>
<path d="M0.449451 49.4073L44.3108 48.9326C44.8171 48.9272 45.2319 49.3331 45.2374 49.8394L45.3762 62.6734C45.3817 63.1797 44.9758 63.5946 44.4695 63.6001L1.52477 64.0649C1.01854 64.0703 0.603715 63.6643 0.598237 63.1581L0.449451 49.4073Z" fill="#0A2D20"/>
<path d="M0.360145 1.38723C0.354666 0.880938 0.760607 0.466069 1.26684 0.46059L43.8196 5.48058e-05C44.3259 -0.00542397 44.7407 0.400562 44.7462 0.90685L44.8855 13.7811C44.8909 14.2874 44.485 14.7023 43.9788 14.7077L0.509366 15.1782L0.360145 1.38723Z" fill="#0A2D20"/>
<path d="M0.50319 49.4068L16.9668 49.2286L17.1255 63.8961L1.53907 64.0409C1.03239 64.0456 0.618004 63.6383 0.613915 63.1315L0.50319 49.4068Z" fill="url(#paint3_linear_923_22)"/>
<path d="M16.8056 24.29L16.842 38.9799L0.564038 39.182L0.392165 24.5137L16.8056 24.29Z" fill="url(#paint4_linear_923_22)"/>
<path d="M16.8951 0.30975L16.8617 15.0027L0.506739 15.1741L0.000616284 1.23173C-0.0182475 0.712083 0.398355 0.280791 0.918288 0.281703L16.8951 0.30975Z" fill="url(#paint5_linear_923_22)"/>
<defs>
<linearGradient id="paint0_linear_923_22" x1="41.2613" y1="8.90803e-05" x2="41.2613" y2="68.7373" gradientUnits="userSpaceOnUse">
<stop stop-color="#0A2D20"/>
<stop offset="1" stop-color="#0A2D20" stop-opacity="0"/>
</linearGradient>
<linearGradient id="paint1_linear_923_22" x1="40.5905" y1="-0.235262" x2="40.5905" y2="71.7647" gradientUnits="userSpaceOnUse">
<stop stop-color="#0A2D20"/>
<stop offset="1" stop-color="#0A2D20" stop-opacity="0"/>
</linearGradient>
<linearGradient id="paint2_linear_923_22" x1="39.5296" y1="-1.83501" x2="39.5296" y2="72" gradientUnits="userSpaceOnUse">
<stop stop-color="#0A2D20"/>
<stop offset="1" stop-color="#0A2D20" stop-opacity="0"/>
</linearGradient>
<linearGradient id="paint3_linear_923_22" x1="40.5611" y1="35.7477" x2="-0.450582" y2="35.3012" gradientUnits="userSpaceOnUse">
<stop stop-color="#0A9661"/>
<stop offset="1" stop-color="#0A9661" stop-opacity="0.5"/>
</linearGradient>
<linearGradient id="paint4_linear_923_22" x1="40.4643" y1="0.00012271" x2="40.4643" y2="74.26" gradientUnits="userSpaceOnUse">
<stop stop-color="#0A2D20" stop-opacity="0.2"/>
<stop offset="1" stop-color="#0A2D20"/>
</linearGradient>
<linearGradient id="paint5_linear_923_22" x1="40.9781" y1="36.0095" x2="40.7397" y2="72.001" gradientUnits="userSpaceOnUse">
<stop stop-color="#0A9661"/>
<stop offset="1" stop-color="#0A9661" stop-opacity="0.5"/>
</linearGradient>
</defs>
</svg>
