<svg width="13" height="11" viewBox="0 0 13 11" fill="none" xmlns="http://www.w3.org/2000/svg">
<path d="M4.57383 3.45074C5.04813 2.51179 6.23979 2.20397 7.10942 2.79575L4.41708 7.82202C4.38107 7.88924 4.2979 7.91529 4.22998 7.88064L2.84847 7.17571C2.77977 7.14066 2.75234 7.05664 2.78711 6.98779L4.57383 3.45074Z" fill="#0A9661"/>
<path d="M8.38734 3.4698L10.0241 4.32768L7.31948 9.49245L5.68269 8.63457L8.38734 3.4698Z" fill="#0A9661"/>
<path d="M11.3283 5.01924C12.267 5.27786 12.7271 6.33717 12.2755 7.1998L10.3254 10.9249C10.2895 10.9934 10.2049 11.0199 10.1364 10.984L8.7476 10.2561C8.67913 10.2202 8.65268 10.1356 8.68851 10.0671L11.3283 5.01924Z" fill="#0A9661"/>
<path d="M7.11463 2.79119L6.43152 4.0778L4.58516 3.43001C5.06585 2.50585 6.25018 2.21003 7.11463 2.79119Z" fill="url(#paint0_linear_923_22)"/>
<path d="M10.0392 4.32045L9.29653 5.71797L7.57365 4.97712L8.37623 3.46503L10.0392 4.32045Z" fill="url(#paint1_linear_923_22)"/>
<path d="M11.6299 5.14531C12.397 5.53594 12.6805 6.48956 12.2513 7.23587L10.5448 6.51423L11.3328 4.99402L11.6299 5.14531Z" fill="url(#paint2_linear_923_22)"/>
<path d="M0.0603418 3.74425L5.90571 3.68099C5.98305 3.68015 6.04642 3.74218 6.04726 3.81953L6.06848 5.78028C6.06931 5.85763 6.00729 5.92102 5.92995 5.92185L0.0845885 5.98511L0.0603418 3.74425Z" fill="#0A9661"/>
<path d="M0.0686661 7.54834L6.76971 7.47582C6.84705 7.47498 6.91043 7.53701 6.91126 7.61436L6.93248 9.57511C6.93332 9.65246 6.8713 9.71584 6.79396 9.71668L0.232951 9.78769C0.15561 9.78852 0.0922343 9.7265 0.0913973 9.64915L0.0686661 7.54834Z" fill="#0A2D20"/>
<path d="M0.0550221 0.211937C0.0541852 0.134588 0.116204 0.0712049 0.193545 0.0703679L6.69467 8.37311e-06C6.77201 -0.000828662 6.83538 0.061197 6.83622 0.138547L6.8575 2.10545C6.85834 2.18279 6.79632 2.24618 6.71898 2.24701L0.0778198 2.31889L0.0550221 0.211937Z" fill="#0A2D20"/>
<path d="M0.0768762 7.54826L2.59216 7.52104L2.6164 9.7619L0.235136 9.78402C0.157727 9.78474 0.0944172 9.72252 0.0937926 9.6451L0.0768762 7.54826Z" fill="url(#paint3_linear_923_22)"/>
<path d="M2.56752 3.71098L2.57309 5.95526L0.0861725 5.98614L0.059914 3.74515L2.56752 3.71098Z" fill="url(#paint4_linear_923_22)"/>
<path d="M2.5812 0.047323L2.57609 2.29208L0.0774184 2.31827L9.41545e-05 0.188181C-0.00278782 0.10879 0.0608598 0.0428986 0.140294 0.043038L2.5812 0.047323Z" fill="url(#paint5_linear_923_22)"/>
<defs>
<linearGradient id="paint0_linear_923_22" x1="6.30381" y1="1.36095e-05" x2="6.30381" y2="10.5015" gradientUnits="userSpaceOnUse">
<stop stop-color="#0A2D20"/>
<stop offset="1" stop-color="#0A2D20" stop-opacity="0"/>
</linearGradient>
<linearGradient id="paint1_linear_923_22" x1="6.20133" y1="-0.0359428" x2="6.20133" y2="10.9641" gradientUnits="userSpaceOnUse">
<stop stop-color="#0A2D20"/>
<stop offset="1" stop-color="#0A2D20" stop-opacity="0"/>
</linearGradient>
<linearGradient id="paint2_linear_923_22" x1="6.03924" y1="-0.280348" x2="6.03924" y2="11" gradientUnits="userSpaceOnUse">
<stop stop-color="#0A2D20"/>
<stop offset="1" stop-color="#0A2D20" stop-opacity="0"/>
</linearGradient>
<linearGradient id="paint3_linear_923_22" x1="6.19684" y1="5.46145" x2="-0.0688389" y2="5.39324" gradientUnits="userSpaceOnUse">
<stop stop-color="#0A9661"/>
<stop offset="1" stop-color="#0A9661" stop-opacity="0.5"/>
</linearGradient>
<linearGradient id="paint4_linear_923_22" x1="6.18204" y1="1.87474e-05" x2="6.18204" y2="11.3453" gradientUnits="userSpaceOnUse">
<stop stop-color="#0A2D20" stop-opacity="0.2"/>
<stop offset="1" stop-color="#0A2D20"/>
</linearGradient>
<linearGradient id="paint5_linear_923_22" x1="6.26054" y1="5.50145" x2="6.22412" y2="11.0002" gradientUnits="userSpaceOnUse">
<stop stop-color="#0A9661"/>
<stop offset="1" stop-color="#0A9661" stop-opacity="0.5"/>
</linearGradient>
</defs>
</svg>
