<svg width="1065" height="941" viewBox="0 0 1065 941" fill="none" xmlns="http://www.w3.org/2000/svg">
<path d="M391.021 295.007C431.57 214.736 533.446 188.419 607.792 239.012L377.62 668.712C374.542 674.459 367.432 676.687 361.625 673.724L243.519 613.459C237.645 610.462 235.3 603.28 238.273 597.394L391.021 295.007Z" fill="#0A9661"/>
<path d="M717.043 296.636L856.973 369.978L625.75 811.519L485.819 738.178L717.043 296.636Z" fill="#0A9661"/>
<path d="M968.469 429.1C1048.71 451.209 1088.05 541.771 1049.45 615.519L882.732 933.979C879.664 939.839 872.426 942.101 866.568 939.031L747.841 876.804C741.988 873.736 739.727 866.505 742.79 860.648L968.469 429.1Z" fill="#0A9661"/>
<path d="M608.237 238.622L549.837 348.615L391.99 293.235C433.085 214.228 534.335 188.937 608.237 238.622Z" fill="url(#paint0_linear_923_22)"/>
<path d="M858.263 369.36L794.77 488.835L647.479 425.499L716.093 296.229L858.263 369.36Z" fill="url(#paint1_linear_923_22)"/>
<path d="M994.251 439.878C1059.83 473.273 1084.07 554.799 1047.38 618.602L901.485 556.908L968.851 426.944L994.251 439.878Z" fill="url(#paint2_linear_923_22)"/>
<path d="M5.15868 320.1L504.885 314.692C511.497 314.62 516.915 319.923 516.986 326.536L518.8 494.162C518.872 500.775 513.57 506.194 506.958 506.265L7.23156 511.674L5.15868 320.1Z" fill="#0A9661"/>
<path d="M5.87033 645.316L578.75 639.115C585.362 639.044 590.78 644.347 590.851 650.959L592.665 818.586C592.736 825.199 587.434 830.617 580.822 830.689L19.9152 836.759C13.3033 836.831 7.8852 831.528 7.81365 824.916L5.87033 645.316Z" fill="#0A2D20"/>
<path d="M4.7039 18.1187C4.63234 11.506 9.93439 6.08738 16.5463 6.01583L572.334 0.000715826C578.946 -0.0708432 584.364 5.2318 584.435 11.8445L586.255 179.997C586.326 186.609 581.024 192.028 574.412 192.1L6.6529 198.244L4.7039 18.1187Z" fill="#0A2D20"/>
<path d="M6.57223 645.309L221.606 642.981L223.679 834.555L20.102 836.446C13.4842 836.508 8.07183 831.188 8.01843 824.569L6.57223 645.309Z" fill="url(#paint3_linear_923_22)"/>
<path d="M219.5 317.255L219.976 509.121L7.36698 511.761L5.12211 320.177L219.5 317.255Z" fill="url(#paint4_linear_923_22)"/>
<path d="M220.669 4.04569L220.232 195.952L6.61858 198.191L0.00804937 16.0878C-0.238333 9.30061 5.20296 3.66744 11.9939 3.67936L220.669 4.04569Z" fill="url(#paint5_linear_923_22)"/>
<defs>
<linearGradient id="paint0_linear_923_22" x1="538.919" y1="0.00116349" x2="538.919" y2="897.787" gradientUnits="userSpaceOnUse">
<stop stop-color="#0A2D20"/>
<stop offset="1" stop-color="#0A2D20" stop-opacity="0"/>
</linearGradient>
<linearGradient id="paint1_linear_923_22" x1="530.158" y1="-3.07278" x2="530.158" y2="937.329" gradientUnits="userSpaceOnUse">
<stop stop-color="#0A2D20"/>
<stop offset="1" stop-color="#0A2D20" stop-opacity="0"/>
</linearGradient>
<linearGradient id="paint2_linear_923_22" x1="516.301" y1="-23.9673" x2="516.301" y2="940.401" gradientUnits="userSpaceOnUse">
<stop stop-color="#0A2D20"/>
<stop offset="1" stop-color="#0A2D20" stop-opacity="0"/>
</linearGradient>
<linearGradient id="paint3_linear_923_22" x1="529.774" y1="466.905" x2="-5.88511" y2="461.074" gradientUnits="userSpaceOnUse">
<stop stop-color="#0A9661"/>
<stop offset="1" stop-color="#0A9661" stop-opacity="0.5"/>
</linearGradient>
<linearGradient id="paint4_linear_923_22" x1="528.509" y1="0.00160274" x2="528.509" y2="969.919" gradientUnits="userSpaceOnUse">
<stop stop-color="#0A2D20" stop-opacity="0.2"/>
<stop offset="1" stop-color="#0A2D20"/>
</linearGradient>
<linearGradient id="paint5_linear_923_22" x1="535.22" y1="470.325" x2="532.106" y2="940.415" gradientUnits="userSpaceOnUse">
<stop stop-color="#0A9661"/>
<stop offset="1" stop-color="#0A9661" stop-opacity="0.5"/>
</linearGradient>
</defs>
</svg>
