<svg width="2773" height="2451" viewBox="0 0 2773 2451" fill="none" xmlns="http://www.w3.org/2000/svg">
<path d="M1018.58 769.067C1124.2 559.967 1389.58 491.415 1583.24 623.203L983.669 1742.54C975.65 1757.51 957.129 1763.31 942.003 1755.59L634.345 1598.61C619.045 1590.8 612.936 1572.09 620.681 1556.76L1018.58 769.067Z" fill="#0A9661"/>
<path d="M1867.83 773.311L2232.34 964.358L1630.02 2114.54L1265.52 1923.49L1867.83 773.311Z" fill="#0A9661"/>
<path d="M2522.78 1118.37C2731.81 1175.96 2834.28 1411.87 2733.71 1603.97L2299.44 2433.53C2291.45 2448.8 2272.59 2454.69 2257.33 2446.69L1948.06 2284.6C1932.81 2276.6 1926.92 2257.77 1934.9 2242.51L2522.78 1118.37Z" fill="#0A9661"/>
<path d="M1584.4 622.188L1432.28 908.711L1021.1 764.451C1128.15 558.644 1391.9 492.764 1584.4 622.188Z" fill="url(#paint0_linear_923_22)"/>
<path d="M2235.7 962.749L2070.31 1273.97L1686.63 1108.99L1865.36 772.249L2235.7 962.749Z" fill="url(#paint1_linear_923_22)"/>
<path d="M2589.94 1146.44C2760.77 1233.43 2823.9 1445.8 2728.33 1612L2348.29 1451.3L2523.77 1112.75L2589.94 1146.44Z" fill="url(#paint2_linear_923_22)"/>
<path d="M13.4379 834.432L1315.18 820.343C1332.41 820.157 1346.52 833.97 1346.71 851.195L1351.43 1287.85C1351.62 1305.07 1337.8 1319.19 1320.58 1319.38L18.8376 1333.46L13.4379 834.432Z" fill="#0A9661"/>
<path d="M15.2917 1681.59L1507.59 1665.44C1524.82 1665.25 1538.93 1679.07 1539.12 1696.29L1543.84 2132.94C1544.03 2150.17 1530.22 2164.29 1512.99 2164.47L51.8775 2180.28C34.6539 2180.47 20.5403 2166.66 20.3539 2149.43L15.2917 1681.59Z" fill="#0A2D20"/>
<path d="M12.2532 47.7964C12.0669 30.5709 25.8782 16.4557 43.1018 16.2693L1490.88 0.600497C1508.1 0.414092 1522.22 14.227 1522.4 31.4525L1527.14 469.474C1527.33 486.7 1513.52 500.815 1496.29 501.001L17.3302 517.008L12.2532 47.7964Z" fill="#0A2D20"/>
<path d="M17.1201 1681.57L577.265 1675.51L582.665 2174.54L52.3639 2179.47C35.1252 2179.63 21.0264 2165.77 20.8873 2148.53L17.1201 1681.57Z" fill="url(#paint3_linear_923_22)"/>
<path d="M571.777 827.022L573.018 1326.82L19.1903 1333.69L13.3427 834.631L571.777 827.022Z" fill="url(#paint4_linear_923_22)"/>
<path d="M574.825 11.1373L573.686 511.037L17.2408 516.87L0.0209679 42.506C-0.620838 24.8259 13.5533 10.152 31.243 10.1831L574.825 11.1373Z" fill="url(#paint5_linear_923_22)"/>
<defs>
<linearGradient id="paint0_linear_923_22" x1="1403.84" y1="0.601664" x2="1403.84" y2="2339.26" gradientUnits="userSpaceOnUse">
<stop stop-color="#0A2D20"/>
<stop offset="1" stop-color="#0A2D20" stop-opacity="0"/>
</linearGradient>
<linearGradient id="paint1_linear_923_22" x1="1381.02" y1="-7.4057" x2="1381.02" y2="2442.26" gradientUnits="userSpaceOnUse">
<stop stop-color="#0A2D20"/>
<stop offset="1" stop-color="#0A2D20" stop-opacity="0"/>
</linearGradient>
<linearGradient id="paint2_linear_923_22" x1="1344.92" y1="-61.834" x2="1344.92" y2="2450.26" gradientUnits="userSpaceOnUse">
<stop stop-color="#0A2D20"/>
<stop offset="1" stop-color="#0A2D20" stop-opacity="0"/>
</linearGradient>
<linearGradient id="paint3_linear_923_22" x1="1380.02" y1="1216.85" x2="-15.3302" y2="1201.66" gradientUnits="userSpaceOnUse">
<stop stop-color="#0A9661"/>
<stop offset="1" stop-color="#0A9661" stop-opacity="0.5"/>
</linearGradient>
<linearGradient id="paint4_linear_923_22" x1="1376.72" y1="0.602808" x2="1376.72" y2="2527.15" gradientUnits="userSpaceOnUse">
<stop stop-color="#0A2D20" stop-opacity="0.2"/>
<stop offset="1" stop-color="#0A2D20"/>
</linearGradient>
<linearGradient id="paint5_linear_923_22" x1="1394.2" y1="1225.75" x2="1386.09" y2="2450.3" gradientUnits="userSpaceOnUse">
<stop stop-color="#0A9661"/>
<stop offset="1" stop-color="#0A9661" stop-opacity="0.5"/>
</linearGradient>
</defs>
</svg>
