<svg width="27" height="23" viewBox="0 0 27 23" fill="none" xmlns="http://www.w3.org/2000/svg">
<path d="M9.56346 7.21519C10.5552 5.25193 13.0468 4.6083 14.8651 5.84566L9.2357 16.3551C9.16042 16.4957 8.98653 16.5502 8.84451 16.4777L5.95589 15.0038C5.81224 14.9305 5.75488 14.7548 5.8276 14.6108L9.56346 7.21519Z" fill="#0A9661"/>
<path d="M17.5372 7.25503L20.9595 9.04878L15.3044 19.8478L11.882 18.0541L17.5372 7.25503Z" fill="#0A9661"/>
<path d="M23.6865 10.4948C25.6491 11.0355 26.6112 13.2504 25.667 15.0541L21.5895 22.8429C21.5145 22.9863 21.3375 23.0416 21.1942 22.9665L18.2904 21.4446C18.1473 21.3695 18.092 21.1927 18.1669 21.0494L23.6865 10.4948Z" fill="#0A9661"/>
<path d="M14.876 5.83612L13.4477 8.5263L9.58715 7.17184C10.5922 5.23951 13.0686 4.62096 14.876 5.83612Z" fill="url(#paint0_linear_923_22)"/>
<path d="M20.9911 9.03367L19.4382 11.9557L15.8358 10.4067L17.5139 7.24506L20.9911 9.03367Z" fill="url(#paint1_linear_923_22)"/>
<path d="M24.317 10.7584C25.921 11.5751 26.5137 13.5691 25.6164 15.1296L22.0482 13.6207L23.6958 10.4421L24.317 10.7584Z" fill="url(#paint2_linear_923_22)"/>
<path d="M0.126169 7.82889L12.3483 7.69662C12.51 7.69487 12.6425 7.82456 12.6443 7.98629L12.6886 12.086C12.6904 12.2478 12.5607 12.3803 12.399 12.3821L0.176867 12.5143L0.126169 7.82889Z" fill="#0A9661"/>
<path d="M0.143575 15.7829L14.1549 15.6313C14.3166 15.6295 14.4491 15.7592 14.4508 15.9209L14.4952 20.0207C14.4969 20.1824 14.3673 20.3149 14.2055 20.3167L0.48708 20.4652C0.325367 20.4669 0.192853 20.3372 0.191104 20.1755L0.143575 15.7829Z" fill="#0A2D20"/>
<path d="M0.115046 0.443142C0.113296 0.281411 0.242972 0.148883 0.404685 0.147133L13.9979 1.75074e-05C14.1596 -0.00173266 14.2922 0.127957 14.2939 0.289688L14.3384 4.40229C14.3402 4.56403 14.2105 4.69655 14.0488 4.6983L0.162714 4.84859L0.115046 0.443142Z" fill="#0A2D20"/>
<path d="M0.160741 15.7827L5.41996 15.7258L5.47066 20.4112L0.491647 20.4575C0.329792 20.459 0.197418 20.3289 0.196112 20.167L0.160741 15.7827Z" fill="url(#paint3_linear_923_22)"/>
<path d="M5.36844 7.75932L5.38009 12.4519L0.180179 12.5165L0.125275 7.83076L5.36844 7.75932Z" fill="url(#paint4_linear_923_22)"/>
<path d="M5.39705 0.0989481L5.38636 4.79252L0.161875 4.84729L0.000196869 0.39347C-0.00582907 0.227471 0.127252 0.089697 0.293342 0.0899886L5.39705 0.0989481Z" fill="url(#paint5_linear_923_22)"/>
<defs>
<linearGradient id="paint0_linear_923_22" x1="13.1807" y1="2.84562e-05" x2="13.1807" y2="21.9578" gradientUnits="userSpaceOnUse">
<stop stop-color="#0A2D20"/>
<stop offset="1" stop-color="#0A2D20" stop-opacity="0"/>
</linearGradient>
<linearGradient id="paint1_linear_923_22" x1="12.9664" y1="-0.0751531" x2="12.9664" y2="22.9248" gradientUnits="userSpaceOnUse">
<stop stop-color="#0A2D20"/>
<stop offset="1" stop-color="#0A2D20" stop-opacity="0"/>
</linearGradient>
<linearGradient id="paint2_linear_923_22" x1="12.6275" y1="-0.586183" x2="12.6275" y2="23" gradientUnits="userSpaceOnUse">
<stop stop-color="#0A2D20"/>
<stop offset="1" stop-color="#0A2D20" stop-opacity="0"/>
</linearGradient>
<linearGradient id="paint3_linear_923_22" x1="12.957" y1="11.4194" x2="-0.143936" y2="11.2768" gradientUnits="userSpaceOnUse">
<stop stop-color="#0A9661"/>
<stop offset="1" stop-color="#0A9661" stop-opacity="0.5"/>
</linearGradient>
<linearGradient id="paint4_linear_923_22" x1="12.9261" y1="3.91991e-05" x2="12.9261" y2="23.7219" gradientUnits="userSpaceOnUse">
<stop stop-color="#0A2D20" stop-opacity="0.2"/>
<stop offset="1" stop-color="#0A2D20"/>
</linearGradient>
<linearGradient id="paint5_linear_923_22" x1="13.0902" y1="11.503" x2="13.0141" y2="23.0003" gradientUnits="userSpaceOnUse">
<stop stop-color="#0A9661"/>
<stop offset="1" stop-color="#0A9661" stop-opacity="0.5"/>
</linearGradient>
</defs>
</svg>
